{
  "accessors": [
    {
      "bufferView": 2,
      "componentType": 5126,
      "count": 65532,
      "max": [
        0.2407684624195099,
        2.8573060035705566,
        3.4224190711975098
      ],
      "min": [
        -5.937784194946289,
        -3.321551561355591,
        -12.523151397705078
      ],
      "type": "VEC3"
    },
    {
      "bufferView": 2,
      "byteOffset": 786384,
      "componentType": 5126,
      "count": 65532,
      "max": [
        1.0,
        1.0,
        1.0
      ],
      "min": [
        -1.0,
        -1.0,
        -1.0
      ],
      "type": "VEC3"
    },
    {
      "bufferView": 1,
      "componentType": 5126,
      "count": 65532,
      "max": [
        0.9540163278579712,
        0.9683516025543213
      ],
      "min": [
        0.0,
        0.0
      ],
      "type": "VEC2"
    },
    {
      "bufferView": 0,
      "componentType": 5125,
      "count": 124506,
      "type": "SCALAR"
    },
    {
      "bufferView": 2,
      "byteOffset": 1572768,
      "componentType": 5126,
      "count": 25285,
      "max": [
        0.24076968431472778,
        2.7311246395111084,
        3.4224209785461426
      ],
      "min": [
        -5.937775135040283,
        -3.321551561355591,
        -12.523153305053711
      ],
      "type": "VEC3"
    },
    {
      "bufferView": 2,
      "byteOffset": 1876188,
      "componentType": 5126,
      "count": 25285,
      "max": [
        1.0,
        1.0,
        1.0
      ],
      "min": [
        -1.0,
        -1.0,
        -1.0
      ],
      "type": "VEC3"
    },
    {
      "bufferView": 1,
      "byteOffset": 524256,
      "componentType": 5126,
      "count": 25285,
      "max": [
        0.9460060596466064,
        0.9683516025543213
      ],
      "min": [
        0.0,
        0.0
      ],
      "type": "VEC2"
    },
    {
      "bufferView": 0,
      "byteOffset": 498024,
      "componentType": 5125,
      "count": 41754,
      "type": "SCALAR"
    },
    {
      "bufferView": 2,
      "byteOffset": 2179608,
      "componentType": 5126,
      "count": 60,
      "max": [
        -0.269581139087677,
        2.346959114074707,
        -9.274415016174316
      ],
      "min": [
        -5.427433013916016,
        -2.8112053871154785,
        -11.90418815612793
      ],
      "type": "VEC3"
    },
    {
      "bufferView": 2,
      "byteOffset": 2180328,
      "componentType": 5126,
      "count": 60,
      "max": [
        1.0,
        1.0,
        1.7309729116732342e-07
      ],
      "min": [
        -1.0,
        -1.0,
        -2.0397149569362227e-07
      ],
      "type": "VEC3"
    },
    {
      "bufferView": 1,
      "byteOffset": 726536,
      "componentType": 5126,
      "count": 60,
      "max": [
        0.5991312861442566,
        0.16116751730442047
      ],
      "min": [
        0.16751733422279358,
        0.05603988841176033
      ],
      "type": "VEC2"
    },
    {
      "bufferView": 0,
      "byteOffset": 665040,
      "componentType": 5125,
      "count": 108,
      "type": "SCALAR"
    },
    {
      "bufferView": 2,
      "byteOffset": 2181048,
      "componentType": 5126,
      "count": 2144,
      "max": [
        -0.21820950508117676,
        2.3983306884765625,
        1.968785285949707
      ],
      "min": [
        -5.478804588317871,
        -2.862576961517334,
        -11.898155212402344
      ],
      "type": "VEC3"
    },
    {
      "bufferView": 2,
      "byteOffset": 2206776,
      "componentType": 5126,
      "count": 2144,
      "max": [
        1.0,
        1.0,
        1.7909122789205867e-06
      ],
      "min": [
        -1.0,
        -1.0,
        -1.7537587382321362e-06
      ],
      "type": "VEC3"
    },
    {
      "bufferView": 1,
      "byteOffset": 727016,
      "componentType": 5126,
      "count": 2144,
      "max": [
        0.8349959850311279,
        0.7126441597938538
      ],
      "min": [
        0.19367581605911255,
        0.059800148010253906
      ],
      "type": "VEC2"
    },
    {
      "bufferView": 0,
      "byteOffset": 665472,
      "componentType": 5125,
      "count": 3456,
      "type": "SCALAR"
    },
    {
      "bufferView": 2,
      "byteOffset": 2232504,
      "componentType": 5126,
      "count": 65532,
      "max": [
        0.70430988073349,
        3.2985405921936035,
        1.1067521572113037
      ],
      "min": [
        -6.4013237953186035,
        -3.7850961685180664,
        -10.448015213012695
      ],
      "type": "VEC3"
    },
    {
      "bufferView": 2,
      "byteOffset": 3018888,
      "componentType": 5126,
      "count": 65532,
      "max": [
        1.0,
        1.0,
        1.0
      ],
      "min": [
        -1.0,
        -1.0,
        -1.0
      ],
      "type": "VEC3"
    },
    {
      "bufferView": 1,
      "byteOffset": 744168,
      "componentType": 5126,
      "count": 65532,
      "max": [
        0.9348306059837341,
        0.6318212747573853
      ],
      "min": [
        0.04435446858406067,
        0.10216915607452393
      ],
      "type": "VEC2"
    },
    {
      "bufferView": 0,
      "byteOffset": 679296,
      "componentType": 5125,
      "count": 116592,
      "type": "SCALAR"
    },
    {
      "bufferView": 2,
      "byteOffset": 3805272,
      "componentType": 5126,
      "count": 41809,
      "max": [
        0.15512840449810028,
        3.3208491802215576,
        1.106750249862671
      ],
      "min": [
        -6.381693363189697,
        -2.4529497623443604,
        -10.448013305664063
      ],
      "type": "VEC3"
    },
    {
      "bufferView": 2,
      "byteOffset": 4306980,
      "componentType": 5126,
      "count": 41809,
      "max": [
        1.0,
        1.0,
        1.0
      ],
      "min": [
        -1.0,
        -1.0,
        -1.0
      ],
      "type": "VEC3"
    },
    {
      "bufferView": 1,
      "byteOffset": 1268424,
      "componentType": 5126,
      "count": 41809,
      "max": [
        0.9348306059837341,
        0.6318212747573853
      ],
      "min": [
        0.04435446858406067,
        0.10216915607452393
      ],
      "type": "VEC2"
    },
    {
      "bufferView": 0,
      "byteOffset": 1145664,
      "componentType": 5125,
      "count": 72804,
      "type": "SCALAR"
    },
    {
      "bufferView": 2,
      "byteOffset": 4808688,
      "componentType": 5126,
      "count": 708,
      "max": [
        -0.3291565477848053,
        2.2873833179473877,
        -9.593661308288574
      ],
      "min": [
        -5.367857456207275,
        -2.7516298294067383,
        -9.805418968200684
      ],
      "type": "VEC3"
    },
    {
      "bufferView": 2,
      "byteOffset": 4817184,
      "componentType": 5126,
      "count": 708,
      "max": [
        1.0,
        1.0,
        1.1870515663758852e-05
      ],
      "min": [
        -1.0,
        -1.0,
        -6.9813318077649456e-06
      ],
      "type": "VEC3"
    },
    {
      "bufferView": 1,
      "byteOffset": 1602896,
      "componentType": 5126,
      "count": 708,
      "max": [
        0.596908450126648,
        0.20172978937625885
      ],
      "min": [
        0.44553160667419434,
        0.18024447560310364
      ],
      "type": "VEC2"
    },
    {
      "bufferView": 0,
      "byteOffset": 1436880,
      "componentType": 5125,
      "count": 2052,
      "type": "SCALAR"
    }
  ],
  "asset": {
    "extras": {
      "author": "carlcapu9 (https://sketchfab.com/carlcapu9)",
      "license": "SKETCHFAB Editorial (https://sketchfab.com/licenses)",
      "source": "https://sketchfab.com/3d-models/new-york-background-building-3-ab9839807c734679917e1ad7d6d69858",
      "title": "New York Background Building 3#"
    },
    "generator": "Sketchfab-12.79.0",
    "version": "2.0"
  },
  "bufferViews": [
    {
      "buffer": 0,
      "byteLength": 1445088,
      "name": "floatBufferViews",
      "target": 34963
    },
    {
      "buffer": 0,
      "byteLength": 1608560,
      "byteOffset": 1445088,
      "byteStride": 8,
      "name": "floatBufferViews",
      "target": 34962
    },
    {
      "buffer": 0,
      "byteLength": 4825680,
      "byteOffset": 3053648,
      "byteStride": 12,
      "name": "floatBufferViews",
      "target": 34962
    }
  ],
  "buffers": [
    {
      "byteLength": 7879328,
      "uri": "scene.bin"
    }
  ],
  "images": [
    {
      "uri": "textures/Building_6_baseColor.jpeg"
    }
  ],
  "materials": [
    {
      "doubleSided": true,
      "name": "Building_6",
      "pbrMetallicRoughness": {
        "baseColorTexture": {
          "index": 0
        },
        "metallicFactor": 0.0
      }
    },
    {
      "doubleSided": true,
      "name": "glass",
      "pbrMetallicRoughness": {
        "baseColorTexture": {
          "index": 0
        },
        "metallicFactor": 0.0,
        "roughnessFactor": 0.0
      }
    },
    {
      "doubleSided": true,
      "name": "B6_Glass",
      "pbrMetallicRoughness": {
        "baseColorTexture": {
          "index": 0
        },
        "metallicFactor": 0.0,
        "roughnessFactor": 0.0
      }
    },
    {
      "doubleSided": true,
      "name": "B6_Metal",
      "pbrMetallicRoughness": {
        "baseColorTexture": {
          "index": 0
        },
        "metallicFactor": 0.6279678845253513,
        "roughnessFactor": 0.26866917169800997
      }
    },
    {
      "doubleSided": true,
      "emissiveFactor": [
        1.0,
        1.0,
        1.0
      ],
      "name": "B6_Emission",
      "pbrMetallicRoughness": {
        "baseColorFactor": [
          0.8,
          0.8,
          0.8,
          1.0
        ],
        "metallicFactor": 0.0,
        "roughnessFactor": 0.7470177871865296
      }
    }
  ],
  "meshes": [
    {
      "name": "Cattura-gigapixel-scale-2_00x.003_Building_6_0",
      "primitives": [
        {
          "attributes": {
            "NORMAL": 1,
            "POSITION": 0,
            "TEXCOORD_0": 2
          },
          "indices": 3,
          "material": 0,
          "mode": 4
        }
      ]
    },
    {
      "name": "Cattura-gigapixel-scale-2_00x.003_Building_6_0",
      "primitives": [
        {
          "attributes": {
            "NORMAL": 5,
            "POSITION": 4,
            "TEXCOORD_0": 6
          },
          "indices": 7,
          "material": 0,
          "mode": 4
        }
      ]
    },
    {
      "name": "Cattura-gigapixel-scale-2_00x.003_glass_0",
      "primitives": [
        {
          "attributes": {
            "NORMAL": 9,
            "POSITION": 8,
            "TEXCOORD_0": 10
          },
          "indices": 11,
          "material": 1,
          "mode": 4
        }
      ]
    },
    {
      "name": "Cattura-gigapixel-scale-2_00x.003_B6_Glass_0",
      "primitives": [
        {
          "attributes": {
            "NORMAL": 13,
            "POSITION": 12,
            "TEXCOORD_0": 14
          },
          "indices": 15,
          "material": 2,
          "mode": 4
        }
      ]
    },
    {
      "name": "Cattura-gigapixel-scale-2_00x.003_B6_Metal_0",
      "primitives": [
        {
          "attributes": {
            "NORMAL": 17,
            "POSITION": 16,
            "TEXCOORD_0": 18
          },
          "indices": 19,
          "material": 3,
          "mode": 4
        }
      ]
    },
    {
      "name": "Cattura-gigapixel-scale-2_00x.003_B6_Metal_0",
      "primitives": [
        {
          "attributes": {
            "NORMAL": 21,
            "POSITION": 20,
            "TEXCOORD_0": 22
          },
          "indices": 23,
          "material": 3,
          "mode": 4
        }
      ]
    },
    {
      "name": "Cattura-gigapixel-scale-2_00x.003_B6_Emission_0",
      "primitives": [
        {
          "attributes": {
            "NORMAL": 25,
            "POSITION": 24,
            "TEXCOORD_0": 26
          },
          "indices": 27,
          "material": 4,
          "mode": 4
        }
      ]
    }
  ],
  "nodes": [
    {
      "children": [
        1
      ],
      "matrix": [
        1.0,
        0.0,
        0.0,
        0.0,
        0.0,
        2.220446049250313e-16,
        -1.0,
        0.0,
        0.0,
        1.0,
        2.220446049250313e-16,
        0.0,
        0.0,
        0.0,
        0.0,
        1.0
      ],
      "name": "Sketchfab_model"
    },
    {
      "children": [
        2
      ],
      "matrix": [
        0.009999999776482582,
        0.0,
        0.0,
        0.0,
        0.0,
        0.0,
        0.009999999776482582,
        0.0,
        0.0,
        -0.009999999776482582,
        0.0,
        0.0,
        0.0,
        0.0,
        0.0,
        1.0
      ],
      "name": "8ee56442b2f544b38c7e4a2d332cb07b.fbx"
    },
    {
      "children": [
        3
      ],
      "name": "RootNode"
    },
    {
      "children": [
        4,
        5,
        6,
        7,
        8,
        9,
        10
      ],
      "matrix": [
        100.0,
        0.0,
        0.0,
        0.0,
        -0.0,
        -1.629206793918314e-05,
        -99.99999999999868,
        0.0,
        0.0,
        99.99999999999868,
        -1.629206793918314e-05,
        0.0,
        -2121.71923828125,
        1365.5784912109375,
        1869.7611083984375,
        1.0
      ],
      "name": "Cattura-gigapixel-scale-2_00x.003"
    },
    {
      "mesh": 0,
      "name": "Cattura-gigapixel-scale-2_00x.003_Building_6_0"
    },
    {
      "mesh": 1,
      "name": "Cattura-gigapixel-scale-2_00x.003_Building_6_0"
    },
    {
      "mesh": 2,
      "name": "Cattura-gigapixel-scale-2_00x.003_glass_0"
    },
    {
      "mesh": 3,
      "name": "Cattura-gigapixel-scale-2_00x.003_B6_Glass_0"
    },
    {
      "mesh": 4,
      "name": "Cattura-gigapixel-scale-2_00x.003_B6_Metal_0"
    },
    {
      "mesh": 5,
      "name": "Cattura-gigapixel-scale-2_00x.003_B6_Metal_0"
    },
    {
      "mesh": 6,
      "name": "Cattura-gigapixel-scale-2_00x.003_B6_Emission_0"
    }
  ],
  "samplers": [
    {
      "magFilter": 9729,
      "minFilter": 9987,
      "wrapS": 10497,
      "wrapT": 10497
    }
  ],
  "scene": 0,
  "scenes": [
    {
      "name": "Sketchfab_Scene",
      "nodes": [
        0
      ]
    }
  ],
  "textures": [
    {
      "sampler": 0,
      "source": 0
    }
  ]
}
